<?xml version="1.0" encoding="utf-8"?>
<!-- Generator: Adobe Illustrator 28.2.0, SVG Export Plug-In . SVG Version: 6.00 Build 0)  -->
<svg version="1.1" id="Laag_1" xmlns="http://www.w3.org/2000/svg" xmlns:xlink="http://www.w3.org/1999/xlink" x="0px" y="0px"
	 viewBox="0 0 147 68" style="enable-background:new 0 0 147 68;" xml:space="preserve">
<style type="text/css">
	.st0{fill:#03161D;}
</style>
<path class="st0" d="M143.2,50.9c0.9-1,0.9-2.6,0.1-3.6C133,34.8,122.5,25,112,18.3C99.2,9.9,86.5,6.1,74.1,6.8
	C63.8,7.4,53,11.2,41.9,18.2C25.5,28.6,11.6,44,1.8,62.7c-0.6,1.2-0.3,2.8,0.7,3.5s2.4,0.4,3-0.8C15,47.5,28.3,32.7,44,22.7
	c10.4-6.6,20.6-10.2,30.3-10.8c11.5-0.7,23.5,3,35.5,10.8c10,6.5,20.2,16,30.2,28.1c0.5,0.6,1.3,0.9,2,0.7
	C142.5,51.4,142.9,51.2,143.2,50.9z"/>
<path class="st0" d="M145.4,53.1c0.6-0.7,0.8-1.8,0.4-2.7c-5.3-15.4-10.4-31.2-15.4-46.8c-0.4-1.3-1.7-2-2.8-1.5
	c-1.1,0.5-1.7,2-1.3,3.3c4.4,13.9,9,27.9,13.6,41.8c-14.8-5.7-32.4-11.6-49.3-7c-1.2,0.3-1.9,1.7-1.6,3.1c0.3,1.4,1.5,2.2,2.6,1.9
	c17.4-4.8,36.2,2.6,51.4,8.6c0.4,0.1,0.7,0.2,1.1,0.1C144.6,53.8,145.1,53.5,145.4,53.1z"/>
</svg>
